<svg xmlns="http://www.w3.org/2000/svg" fill="none" viewBox="0 0 25 24" height="24" width="25">
<path fill="black" d="M12.667 14V16C9.35328 16 6.66699 18.6863 6.66699 22H4.66699C4.66699 17.5817 8.24871 14 12.667 14ZM12.667 13C9.35199 13 6.66699 10.315 6.66699 7C6.66699 3.685 9.35199 1 12.667 1C15.982 1 18.667 3.685 18.667 7C18.667 10.315 15.982 13 12.667 13ZM12.667 11C14.877 11 16.667 9.21 16.667 7C16.667 4.79 14.877 3 12.667 3C10.457 3 8.66699 4.79 8.66699 7C8.66699 9.21 10.457 11 12.667 11ZM18.667 21.5L15.7281 23.0451L16.2894 19.7725L13.9117 17.4549L17.1975 16.9775L18.667 14L20.1365 16.9775L23.4223 17.4549L21.0446 19.7725L21.6059 23.0451L18.667 21.5Z"></path>
</svg>
