<svg xmlns="http://www.w3.org/2000/svg" fill="none" viewBox="0 0 25 24" height="24" width="25">
<path fill="black" d="M4.74435 14.5259L8.14599 11.1242L10.9744 13.9527L14.1313 10.7958L12.3384 9.00293H17.3384V14.0029L15.5455 12.21L10.9744 16.7811L8.14599 13.9527L5.67184 16.4268C7.10508 18.5823 9.55583 20.0029 12.3384 20.0029C16.7567 20.0029 20.3384 16.4212 20.3384 12.0029C20.3384 7.58465 16.7567 4.00293 12.3384 4.00293C7.9201 4.00293 4.33838 7.58465 4.33838 12.0029C4.33838 12.8845 4.48097 13.7327 4.74435 14.5259ZM3.20638 16.0841L3.19625 16.074L3.20012 16.0701C2.64626 14.8275 2.33838 13.4512 2.33838 12.0029C2.33838 6.48008 6.81554 2.00293 12.3384 2.00293C17.8612 2.00293 22.3384 6.48008 22.3384 12.0029C22.3384 17.5258 17.8612 22.0029 12.3384 22.0029C8.26924 22.0029 4.76776 19.5725 3.20638 16.0841Z"></path>
</svg>
