<svg xmlns="http://www.w3.org/2000/svg" fill="none" viewBox="0 0 21 21" height="21" width="21">
<path fill="black" d="M2.3335 5.14286V17.9669L7.39826 15.7963L13.3983 18.7963L18.3335 16.6812V3.85714L19.6365 3.2987C19.8904 3.18992 20.1843 3.30749 20.2931 3.56131C20.3197 3.62355 20.3335 3.69056 20.3335 3.75827V18L13.3335 21L7.3335 18L1.03046 20.7013C0.776636 20.8101 0.482706 20.6925 0.373926 20.4387C0.347246 20.3765 0.333496 20.3094 0.333496 20.2417V6L2.3335 5.14286ZM14.5761 10.2426L10.3335 14.4853L6.09086 10.2426C3.74771 7.89949 3.74771 4.10051 6.09086 1.75736C8.434 -0.585787 12.233 -0.585787 14.5761 1.75736C16.9193 4.10051 16.9193 7.89949 14.5761 10.2426ZM10.3335 11.6569L13.1619 8.82843C14.724 7.26633 14.724 4.73367 13.1619 3.17157C11.5998 1.60948 9.0672 1.60948 7.50507 3.17157C5.94298 4.73367 5.94298 7.26633 7.50507 8.82843L10.3335 11.6569Z"></path>
</svg>
